HIERARCHY
ROOT Hips
{
  OFFSET 0 0 0
  CHANNELS 6 Xposition Yposition Zposition Zrotation Xrotation Yrotation
  JOINT Spine
  {
    OFFSET 0 10.1816 0.131521
    CHANNELS 3 Zrotation Xrotation Yrotation
    JOINT Spine1
    {
      OFFSET 0 10.0835 -1.0008
      CHANNELS 3 Zrotation Xrotation Yrotation
      JOINT Spine2
      {
        OFFSET 0 9.10001 -1.37342
        CHANNELS 3 Zrotation Xrotation Yrotation
        JOINT Neck
        {
          OFFSET 0 16.6717 -2.51617
          CHANNELS 3 Zrotation Xrotation Yrotation
          JOINT Head
          {
            OFFSET 0 9.61788 1.68501
            CHANNELS 3 Zrotation Xrotation Yrotation
            End Site
            {
              OFFSET 0 0 0
            }
          }
        }
        JOINT LeftShoulder
        {
          OFFSET 4.57045 10.946 -2.62799
          CHANNELS 3 Zrotation Xrotation Yrotation
          JOINT LeftArm
          {
            OFFSET 10.5924 -0.524583 -2.23212
            CHANNELS 3 Zrotation Xrotation Yrotation
            JOINT LeftForeArm
            {
              OFFSET 27.8415 -8.94286e-05 3.74589e-05
              CHANNELS 3 Zrotation Xrotation Yrotation
              JOINT LeftHand
              {
                OFFSET 28.3288 -1.74407e-05 3.78045e-05
                CHANNELS 3 Zrotation Xrotation Yrotation
                End Site
                {
                  OFFSET 0 0 0
                }
              }
            }
          }
        }
        JOINT RightShoulder
        {
          OFFSET -4.56997 10.9462 -2.62802
          CHANNELS 3 Zrotation Xrotation Yrotation
          JOINT RightArm
          {
            OFFSET -10.5928 -0.524798 -2.2321
            CHANNELS 3 Zrotation Xrotation Yrotation
            JOINT RightForeArm
            {
              OFFSET -27.8415 -3.30792e-05 1.16763e-05
              CHANNELS 3 Zrotation Xrotation Yrotation
              JOINT RightHand
              {
                OFFSET -28.3288 0 5.5816e-05
                CHANNELS 3 Zrotation Xrotation Yrotation
                End Site
                {
                  OFFSET 0 0 0
                }
              }
            }
          }
        }
      }
    }
  }
  JOINT LeftUpLeg
  {
    OFFSET 8.20778 -6.75171 -1.59956
    CHANNELS 3 Zrotation Xrotation Yrotation
    JOINT LeftLeg
    {
      OFFSET 0 -44.3705 0.284643
      CHANNELS 3 Zrotation Xrotation Yrotation
      JOINT LeftFoot
      {
        OFFSET 0 -44.4279 -2.98219
        CHANNELS 3 Zrotation Xrotation Yrotation
        JOINT LeftToeBase
        {
          OFFSET 0 -8.72867 10.7106
          CHANNELS 3 Zrotation Xrotation Yrotation
          End Site
          {
            OFFSET 0 0 0
          }
        }
      }
    }
  }
  JOINT RightUpLeg
  {
    OFFSET -8.2078 -6.75166 -1.59956
    CHANNELS 3 Zrotation Xrotation Yrotation
    JOINT RightLeg
    {
      OFFSET 0 -44.3705 0.286156
      CHANNELS 3 Zrotation Xrotation Yrotation
      JOINT RightFoot
      {
        OFFSET 0 -44.4277 -2.98379
        CHANNELS 3 Zrotation Xrotation Yrotation
        JOINT RightToeBase
        {
          OFFSET 0 -8.72867 10.7106
          CHANNELS 3 Zrotation Xrotation Yrotation
          End Site
          {
            OFFSET 0 0 0
          }
        }
      }
    }
  }
}
MOTION
Frames:	14
Frame Time:	0.0333333
149.125 104.208 -67.542 0.0602188 -4.04302 -2.01899 -0.208019 1.57759 -0.000423362 -0.390935 3.1297 -0.0195577 -0.390933 3.1297 -0.0195431 -2.36146 9.75573 -5.05946 5.19911 -18.1167 -6.37867 1.04924 0.0298857 2.17423 -11.7568 -3.86425 -0.365395 13.9262 -4.41686 -14.5827 0.984708 19.36 9.18959 2.07596 -0.325765 -6.72912 7.32322 -4.29327 4.35077 -14.7594 -4.55501 14.1725 -3.03768 5.93906 -8.63791 3.0228 2.97578 -3.58879 -2.37692 5.79002 4.62313 -1.0745 -0.552022 3.07879 -8.00747e-07 -4.64885e-06 1.17336e-05 -3.35492 4.30916 -0.32223 2.76955 6.11707 -10.4157 1.03326 -4.36877 -7.03725 -8.19291e-07 1.36546e-06 1.00857e-05 
149.124 104.208 -67.5409 0.0599766 -4.03352 -2.02718 -0.208019 1.57759 -0.000423362 -0.394603 3.1297 -0.0195577 -0.394601 3.1297 -0.0195431 -2.37419 9.74357 -5.04839 5.19886 -18.1067 -6.37188 1.05895 0.0298857 2.17423 -11.7552 -3.85682 -0.343043 13.9007 -4.40017 -14.5603 1.01089 19.2701 9.20273 2.07126 -0.325754 -6.74557 7.31429 -4.3348 4.35685 -14.7443 -4.5452 14.1599 -3.01054 5.92358 -8.65374 3.0227 2.96781 -3.59648 -2.37748 5.78504 4.63258 -1.07472 -0.546601 3.08552 -8.00747e-07 -4.64885e-06 1.17336e-05 -3.35534 4.29756 -0.317464 2.77245 6.11458 -10.4156 1.03375 -4.36487 -7.03721 -8.19291e-07 1.36546e-06 1.00857e-05 
149.123 104.207 -67.5388 0.0594674 -4.01411 -2.04421 -0.208019 1.57759 -0.000423362 -0.402261 3.1297 -0.0195577 -0.402257 3.1297 -0.0195431 -2.39767 9.71032 -5.02663 5.19811 -18.0786 -6.35736 1.08028 0.0298857 2.17718 -11.7456 -3.87597 -0.301563 13.8549 -4.37816 -14.5472 1.01212 19.1198 9.28174 2.06261 -0.325733 -6.77664 7.29412 -4.41619 4.36761 -14.715 -4.52491 14.1318 -2.95933 5.88861 -8.68145 3.02281 2.95499 -3.61422 -2.37663 5.7717 4.65314 -1.07517 -0.535867 3.10008 -8.00747e-07 -4.64885e-06 1.17336e-05 -3.35627 4.28093 -0.306258 2.77898 6.10307 -10.4154 1.0347 -4.35722 -7.03714 -8.19291e-07 1.36546e-06 1.00857e-05 
149.122 104.207 -67.5392 0.0588011 -3.99461 -2.06372 -0.208019 1.57759 -0.000423362 -0.410153 3.1297 -0.0143371 -0.410121 3.1297 -0.0143584 -2.41779 9.68506 -5.00864 5.18866 -18.0524 -6.34471 1.1021 0.0298853 2.19429 -11.7307 -3.88306 -0.28442 13.805 -4.35261 -14.5274 0.977101 19.0761 9.32026 2.0534 -0.325716 -6.8025 7.27359 -4.49642 4.37017 -14.6886 -4.50538 14.1022 -2.91717 5.85238 -8.70472 3.02263 2.93843 -3.63102 -2.37685 5.76253 4.67479 -1.0756 -0.525206 3.11532 -8.00747e-07 -4.64885e-06 1.17336e-05 -3.35751 4.25924 -0.291117 2.78607 6.09742 -10.4153 1.03555 -4.35035 -7.03707 -8.19291e-07 1.36546e-06 1.00857e-05 
149.12 104.208 -67.5402 0.0579551 -3.97569 -2.0857 -0.208019 1.57759 -0.000423362 -0.417922 3.1297 -0.00788331 -0.417908 3.1297 -0.00787318 -2.42935 9.7116 -4.99587 5.16044 -18.0692 -6.33352 1.11888 0.0298851 2.20404 -11.7142 -3.85691 -0.272078 13.7592 -4.32138 -14.4822 0.945967 19.2009 9.30006 2.04547 -0.326758 -6.8156 7.25362 -4.56297 4.35778 -14.6703 -4.48946 14.0741 -2.89531 5.82243 -8.7219 3.0223 2.92463 -3.64163 -2.37714 5.75214 4.6942 -1.07604 -0.514888 3.12905 -8.00747e-07 -4.64885e-06 1.17336e-05 -3.35905 4.23646 -0.271902 2.79319 6.09318 -10.4152 1.03643 -4.34323 -7.03701 -8.19291e-07 1.36546e-06 1.00857e-05 
149.118 104.209 -67.5415 0.0571959 -3.95731 -2.10635 -0.208019 1.57759 -0.000423362 -0.424789 3.1297 -0.00199355 -0.424766 3.1297 -0.00199295 -2.43251 9.77959 -4.97038 5.13292 -18.1385 -6.3057 1.12713 0.0298057 2.20425 -11.7042 -3.77635 -0.269874 13.7249 -4.28409 -14.3861 1.03148 19.4731 9.17413 2.03783 -0.327875 -6.81581 7.23977 -4.60922 4.33111 -14.6648 -4.47959 14.0499 -2.90509 5.8053 -8.73098 3.02169 2.91157 -3.64598 -2.37713 5.7424 4.70919 -1.07649 -0.504997 3.13973 -8.00747e-07 -4.64885e-06 1.17336e-05 -3.36066 4.21724 -0.251285 2.80018 6.08663 -10.4151 1.03722 -4.33683 -7.03695 -8.19291e-07 1.36546e-06 1.00857e-05 
149.117 104.209 -67.5432 0.0565609 -3.94042 -2.12459 -0.208019 1.57759 -0.000423362 -0.430173 3.1297 0.00116018 -0.430169 3.1297 0.00112624 -2.44548 9.83991 -4.94459 5.11728 -18.1996 -6.28169 1.12706 0.0297696 2.21397 -11.6945 -3.57877 -0.310403 13.6834 -4.21775 -14.1908 1.36707 19.8595 8.87667 2.02615 -0.329066 -6.81546 7.23817 -4.64842 4.30834 -14.6619 -4.47208 14.0297 -2.95293 5.80241 -8.72542 3.02062 2.89493 -3.64576 -2.37702 5.7386 4.72021 -1.07693 -0.495631 3.14753 -8.00747e-07 -4.64885e-06 1.17336e-05 -3.36226 4.19711 -0.230575 2.80675 6.08462 -10.415 1.03801 -4.33047 -7.03689 -8.19291e-07 1.36546e-06 1.00857e-05 
149.116 104.21 -67.5466 0.0560704 -3.92581 -2.13963 -0.208019 1.57759 -0.000423362 -0.433702 3.1297 0.00291558 -0.433711 3.1297 0.00289397 -2.47681 9.87576 -4.92667 5.11621 -18.2237 -6.27332 1.11836 0.0297751 2.22652 -11.6914 -3.37758 -0.351607 13.6331 -4.14299 -13.9729 1.82405 20.2667 8.4758 2.00522 -0.330293 -6.81742 7.25624 -4.69297 4.29405 -14.6603 -4.46737 14.0169 -3.01093 5.78032 -8.718 3.0196 2.88257 -3.64108 -2.37617 5.73745 4.72671 -1.07738 -0.486693 3.15222 -8.00747e-07 -4.64885e-06 1.17336e-05 -3.36214 4.17979 -0.211094 2.81301 6.08292 -10.415 1.03875 -4.32449 -7.03683 -8.19291e-07 1.36546e-06 1.00857e-05 
149.115 104.21 -67.5519 0.0557146 -3.91351 -2.15154 -0.208019 1.57759 -0.000423362 -0.435342 3.1297 0.00406292 -0.435369 3.1297 0.00432894 -2.51569 9.90284 -4.9148 5.12445 -18.2362 -6.27453 1.10497 0.0298204 2.23753 -11.7065 -3.29969 -0.356137 13.5755 -4.08843 -13.8365 2.17559 20.5365 8.15483 1.97546 -0.331521 -6.8251 7.29738 -4.7479 4.28708 -14.6583 -4.46706 14.0157 -3.07288 5.7314 -8.71497 3.01815 2.86755 -3.63116 -2.37413 5.73738 4.72835 -1.07784 -0.478334 3.15266 -8.00747e-07 -4.64885e-06 1.17336e-05 -3.36227 4.16279 -0.192907 2.81847 6.08085 -10.4199 1.03951 -4.31834 -7.03677 -8.19291e-07 1.36546e-06 1.00857e-05 
149.112 104.211 -67.5599 0.0555097 -3.9039 -2.15983 -0.208019 1.57759 -0.000423362 -0.436773 3.1297 0.00524188 -0.436809 3.1297 0.00568983 -2.5461 9.92164 -4.91491 5.14009 -18.2401 -6.286 1.09326 0.0299037 2.24515 -11.7351 -3.28273 -0.345253 13.5087 -4.04599 -13.7546 2.43185 20.4881 7.96252 1.95103 -0.332713 -6.84034 7.34896 -4.81351 4.28967 -14.6558 -4.46866 14.0238 -3.14114 5.68275 -8.72784 3.01806 2.85129 -3.61541 -2.36958 5.73848 4.72382 -1.07835 -0.46961 3.14956 -8.00747e-07 -4.64885e-06 1.17336e-05 -3.36244 4.14504 -0.176842 2.82278 6.07897 -10.4255 1.04014 -4.31321 -7.03673 -8.19291e-07 1.36546e-06 1.00857e-05 
149.109 104.211 -67.5702 0.055469 -3.89701 -2.16424 -0.208019 1.57759 -0.000423362 -0.437973 3.1297 0.00639681 -0.438011 3.1297 0.00693727 -2.57024 9.92958 -4.92703 5.16362 -18.2406 -6.30824 1.08309 0.030023 2.25156 -11.7745 -3.30717 -0.326101 13.4579 -4.01546 -13.7138 2.58423 20.3476 7.84862 1.93243 -0.333837 -6.86131 7.40534 -4.88387 4.30103 -14.6526 -4.47092 14.0374 -3.17189 5.67634 -8.75613 3.018 2.83741 -3.58924 -2.3626 5.74084 4.71059 -1.08205 -0.460345 3.14121 -8.00747e-07 -4.64885e-06 1.17336e-05 -3.36249 4.12972 -0.163372 2.82493 6.07774 -10.4317 1.04041 -4.30836 -7.04105 -8.19291e-07 1.36546e-06 1.00857e-05 
149.105 104.211 -67.5828 0.0555053 -3.89361 -2.16559 -0.208019 1.57759 -0.000423362 -0.438922 3.1297 0.00747204 -0.438956 3.1297 0.00803194 -2.58286 9.92372 -4.94122 5.18089 -18.2289 -6.32849 1.07669 0.0301763 2.2578 -11.8264 -3.37314 -0.300787 13.4478 -4.00919 -13.705 2.59495 20.236 7.76462 1.92709 -0.334857 -6.88673 7.45202 -4.95181 4.32059 -14.6489 -4.47425 14.0519 -3.09172 5.77822 -8.79243 3.01721 2.82338 -3.54433 -2.35147 5.74629 4.68436 -1.0889 -0.449197 3.12502 -8.00747e-07 -4.64885e-06 1.17336e-05 -3.36242 4.11624 -0.151638 2.82673 6.07764 -10.4383 1.0385 -4.30365 -7.04632 -8.19291e-07 1.36546e-06 1.00857e-05 
149.102 104.211 -67.5977 0.0554551 -3.89473 -2.16571 -0.208019 1.57759 -0.000423362 -0.4396 3.13371 0.00841194 -0.439626 3.13369 0.00893451 -2.58101 9.90858 -4.95743 5.18793 -18.2046 -6.34565 1.0743 0.0303621 2.25509 -11.9015 -3.5075 -0.264498 13.4788 -4.02825 -13.7311 2.54268 20.214 7.69798 1.93462 -0.335739 -6.91821 7.49125 -4.97785 4.34972 -14.6736 -4.48408 14.0535 -3.01175 5.79079 -8.82083 3.01692 2.81439 -3.50422 -2.34203 5.75089 4.66026 -1.09516 -0.438964 3.11016 -8.00747e-07 -4.64885e-06 1.17336e-05 -3.36221 4.10951 -0.140073 2.82826 6.07915 -10.4448 1.03591 -4.29993 -7.05048 -8.19291e-07 1.36546e-06 1.00857e-05 
149.098 104.212 -67.6151 0.0553059 -3.90053 -2.16469 -0.208019 1.57759 -0.000423362 -0.439986 3.13986 0.00916085 -0.440001 3.13986 0.00960565 -2.56778 9.89086 -4.97784 5.18634 -18.1762 -6.363 1.07315 0.0305785 2.23737 -11.9687 -3.63678 -0.221038 13.5018 -4.04715 -13.7674 2.52738 20.239 7.63914 1.94218 -0.336449 -6.95449 7.5258 -4.99785 4.3773 -14.6943 -4.49211 14.0541 -2.95384 5.74791 -8.83688 3.01662 2.80699 -3.46887 -2.33415 5.75701 4.63803 -1.10091 -0.428516 3.09645 -8.00747e-07 -4.64885e-06 1.17336e-05 -3.36158 4.10112 -0.131645 2.83004 6.08504 -10.4507 1.03322 -4.29604 -7.05246 -8.19291e-07 1.36546e-06 1.00857e-05 
